<svg width="159" height="27" viewBox="0 0 159 27" fill="none" xmlns="http://www.w3.org/2000/svg">
<path d="M74.6081 26.5403C71.9623 26.5403 69.9325 25.9344 68.5187 24.7225C67.1251 23.4905 66.3576 21.8041 66.2162 19.6631H70.912C70.9322 20.0671 71.013 20.4609 71.1544 20.8447C71.2958 21.2082 71.5078 21.5415 71.7906 21.8444C72.0936 22.1272 72.4773 22.3595 72.9418 22.5413C73.4266 22.723 74.0224 22.8139 74.7293 22.8139C75.9209 22.8139 76.8096 22.6018 77.3953 22.1777C78.0012 21.7536 78.3042 21.2183 78.3042 20.572C78.3042 20.1681 78.183 19.8348 77.9406 19.5723C77.7185 19.3097 77.4054 19.0875 77.0015 18.9058C76.5975 18.7038 76.1229 18.5422 75.5776 18.421C75.0524 18.2796 74.497 18.1484 73.9113 18.0272C73.0832 17.8252 72.2349 17.603 71.3665 17.3607C70.498 17.0981 69.7103 16.7245 69.0034 16.2397C68.2965 15.755 67.7108 15.1289 67.2462 14.3614C66.8019 13.5737 66.5797 12.5638 66.5797 11.3318C66.5797 10.4229 66.7514 9.58476 67.0948 8.81727C67.4381 8.02958 67.943 7.36307 68.6095 6.81775C69.2761 6.25223 70.0839 5.80789 71.0332 5.48473C72.0027 5.16158 73.1135 5 74.3657 5C75.6382 5 76.7591 5.17168 77.7286 5.51503C78.7182 5.83818 79.5463 6.30272 80.2128 6.90863C80.8995 7.49435 81.4348 8.21135 81.8185 9.05963C82.2022 9.88772 82.4345 10.8067 82.5153 11.8165H77.7892C77.7488 10.9885 77.466 10.2816 76.9409 9.69584C76.4158 9.11012 75.517 8.81727 74.2446 8.81727C73.2953 8.81727 72.5379 8.99904 71.9724 9.36259C71.4069 9.72614 71.1241 10.2513 71.1241 10.938C71.1241 11.3823 71.2453 11.756 71.4876 12.0589C71.73 12.3417 72.0532 12.584 72.4571 12.786C72.8611 12.988 73.3256 13.1597 73.8507 13.301C74.396 13.4424 74.9616 13.5838 75.5473 13.7252C76.3956 13.907 77.2539 14.119 78.1224 14.3614C79.0111 14.6038 79.819 14.9471 80.5461 15.3914C81.2732 15.8358 81.8589 16.4215 82.3032 17.1486C82.7678 17.8757 83 18.825 83 19.9964C83 20.9457 82.8183 21.8242 82.4547 22.6321C82.0912 23.4198 81.5458 24.1065 80.8187 24.6922C80.1118 25.278 79.2333 25.7324 78.183 26.0556C77.153 26.3787 75.9613 26.5403 74.6081 26.5403Z" fill="white"/>
<path d="M59.2396 26.1464V5.3938H63.9355V26.1464H59.2396Z" fill="white"/>
<path d="M44.9567 20.3599V26.1464H40.2609V5.3938H49.1981C50.3695 5.3938 51.4097 5.58567 52.3186 5.96942C53.2476 6.35317 54.0252 6.87829 54.6513 7.5448C55.2977 8.21131 55.7824 8.9889 56.1055 9.87757C56.4287 10.7662 56.5903 11.7155 56.5903 12.7254C56.5903 13.7958 56.4085 14.7956 56.045 15.7247C55.7016 16.6335 55.1866 17.4414 54.4999 18.1483C53.8334 18.835 53.0154 19.3803 52.0459 19.7843C51.0764 20.168 49.9858 20.3599 48.774 20.3599H44.9567ZM44.9567 9.6958V16.0579H48.6528C49.6626 16.0579 50.4503 15.765 51.0159 15.1793C51.5814 14.5734 51.8641 13.7958 51.8641 12.8466C51.8641 11.8973 51.5713 11.1399 50.9856 10.5744C50.42 9.98866 49.592 9.6958 48.5013 9.6958H44.9567Z" fill="white"/>
<path d="M29.3881 26.5403C26.7423 26.5403 24.7125 25.9344 23.2987 24.7225C21.9051 23.4905 21.1376 21.8041 20.9962 19.6631H25.6921C25.7123 20.0671 25.793 20.4609 25.9344 20.8447C26.0758 21.2082 26.2879 21.5415 26.5706 21.8444C26.8736 22.1272 27.2573 22.3595 27.7219 22.5413C28.2066 22.723 28.8024 22.8139 29.5093 22.8139C30.701 22.8139 31.5896 22.6018 32.1754 22.1777C32.7813 21.7536 33.0842 21.2183 33.0842 20.572C33.0842 20.1681 32.963 19.8348 32.7207 19.5723C32.4985 19.3097 32.1855 19.0875 31.7815 18.9058C31.3776 18.7038 30.9029 18.5422 30.3576 18.421C29.8325 18.2796 29.2771 18.1484 28.6913 18.0272C27.8633 17.8252 27.015 17.603 26.1465 17.3607C25.278 17.0981 24.4903 16.7245 23.7834 16.2397C23.0765 15.755 22.4908 15.1289 22.0263 14.3614C21.5819 13.5737 21.3598 12.5638 21.3598 11.3318C21.3598 10.4229 21.5314 9.58476 21.8748 8.81727C22.2181 8.02958 22.7231 7.36307 23.3896 6.81775C24.0561 6.25223 24.864 5.80789 25.8132 5.48473C26.7827 5.16158 27.8936 5 29.1458 5C30.4182 5 31.5391 5.17168 32.5086 5.51503C33.4983 5.83818 34.3264 6.30272 34.9929 6.90863C35.6796 7.49435 36.2148 8.21135 36.5985 9.05963C36.9823 9.88772 37.2146 10.8067 37.2953 11.8165H32.5692C32.5288 10.9885 32.246 10.2816 31.7209 9.69584C31.1958 9.11012 30.297 8.81727 29.0246 8.81727C28.0753 8.81727 27.3179 8.99904 26.7524 9.36259C26.1869 9.72614 25.9041 10.2513 25.9041 10.938C25.9041 11.3823 26.0253 11.756 26.2677 12.0589C26.51 12.3417 26.8332 12.584 27.2371 12.786C27.6411 12.988 28.1056 13.1597 28.6307 13.301C29.1761 13.4424 29.7416 13.5838 30.3273 13.7252C31.1756 13.907 32.034 14.119 32.9025 14.3614C33.7911 14.6038 34.599 14.9471 35.3261 15.3914C36.0532 15.8358 36.6389 16.4215 37.0833 17.1486C37.5478 17.8757 37.7801 18.825 37.7801 19.9964C37.7801 20.9457 37.5983 21.8242 37.2347 22.6321C36.8712 23.4198 36.3259 24.1065 35.5988 24.6922C34.8919 25.278 34.0133 25.7324 32.963 26.0556C31.933 26.3787 30.7414 26.5403 29.3881 26.5403Z" fill="white"/>
<path d="M10.0582 10.3017L6.47082 21.9852H13.6456L10.0582 10.3017ZM14.1481 26.1464H5.99856H4.81703H0L7.33158 5.3938H13.0878L20.389 26.1464H15.3297H14.1481Z" fill="white"/>
<path d="M96.216 14V5.552H98.152V7.456C98.7493 6.016 99.7467 5.328 101.144 5.392V7.44H101.032C100.157 7.44 99.4587 7.728 98.936 8.304C98.4133 8.86933 98.152 9.696 98.152 10.784V14H96.216ZM106.416 14.192C105.179 14.192 104.144 13.7813 103.312 12.96C102.491 12.1387 102.08 11.0773 102.08 9.776C102.08 8.54933 102.469 7.50933 103.248 6.656C104.027 5.80267 105.013 5.376 106.208 5.376C107.488 5.376 108.48 5.81333 109.184 6.688C109.899 7.552 110.256 8.62933 110.256 9.92C110.256 10.1547 110.245 10.336 110.224 10.464H104.016C104.123 11.136 104.395 11.664 104.832 12.048C105.269 12.4213 105.808 12.608 106.448 12.608C107.28 12.608 108.043 12.272 108.736 11.6L109.872 12.608C108.997 13.664 107.845 14.192 106.416 14.192ZM104 9.184H108.336C108.272 8.53333 108.053 8 107.68 7.584C107.307 7.168 106.811 6.96 106.192 6.96C105.605 6.96 105.115 7.168 104.72 7.584C104.325 7.98933 104.085 8.52267 104 9.184ZM113.826 14.064L111.09 5.552H113.074L114.77 11.344L116.642 5.52H118.29L120.178 11.344L121.906 5.552H123.842L121.074 14.064H119.346L117.458 8.288L115.554 14.064H113.826ZM132.351 14H130.431V12.96C129.748 13.7707 128.836 14.176 127.695 14.176C126.852 14.176 126.138 13.9467 125.551 13.488C124.975 13.0187 124.687 12.368 124.687 11.536C124.687 10.6293 125.002 9.94133 125.631 9.472C126.26 9.00267 127.087 8.768 128.111 8.768C128.932 8.768 129.711 8.88533 130.447 9.12V8.96C130.447 8.37333 130.266 7.92533 129.903 7.616C129.551 7.30667 129.039 7.152 128.367 7.152C127.599 7.152 126.794 7.328 125.951 7.68L125.423 6.128C126.468 5.65867 127.54 5.424 128.639 5.424C129.866 5.424 130.788 5.73333 131.407 6.352C132.036 6.97067 132.351 7.85067 132.351 8.992V14ZM130.479 10.944V10.464C129.903 10.24 129.258 10.128 128.543 10.128C127.935 10.128 127.46 10.2453 127.119 10.48C126.778 10.7147 126.607 11.0453 126.607 11.472C126.607 11.856 126.762 12.16 127.071 12.384C127.38 12.608 127.77 12.72 128.239 12.72C128.89 12.72 129.423 12.5547 129.839 12.224C130.266 11.8933 130.479 11.4667 130.479 10.944ZM134.654 14V5.552H136.59V7.456C137.187 6.016 138.184 5.328 139.582 5.392V7.44H139.47C138.595 7.44 137.896 7.728 137.374 8.304C136.851 8.86933 136.59 9.696 136.59 10.784V14H134.654ZM144.516 14.176C143.461 14.176 142.543 13.7813 141.765 12.992C140.986 12.192 140.597 11.1147 140.597 9.76C140.597 8.416 140.981 7.34933 141.749 6.56C142.527 5.77067 143.45 5.376 144.516 5.376C145.669 5.376 146.629 5.872 147.397 6.864V2.32H149.333V14H147.397V12.592C146.65 13.648 145.69 14.176 144.516 14.176ZM143.253 11.744C143.733 12.2453 144.309 12.496 144.981 12.496C145.653 12.496 146.229 12.24 146.709 11.728C147.189 11.216 147.429 10.56 147.429 9.76C147.429 8.97067 147.189 8.32533 146.709 7.824C146.229 7.312 145.653 7.056 144.981 7.056C144.298 7.056 143.722 7.30667 143.253 7.808C142.783 8.29867 142.549 8.96 142.549 9.792C142.549 10.592 142.783 11.2427 143.253 11.744ZM154.643 14.16C153.321 14.16 152.126 13.7387 151.059 12.896L151.923 11.584C152.841 12.2773 153.763 12.624 154.691 12.624C155.107 12.624 155.427 12.544 155.651 12.384C155.886 12.2133 156.003 11.9787 156.003 11.68C156.003 11.5307 155.961 11.4027 155.875 11.296C155.801 11.1787 155.662 11.072 155.459 10.976C155.257 10.88 155.086 10.8107 154.947 10.768C154.809 10.7253 154.579 10.656 154.259 10.56L154.115 10.512C153.817 10.4267 153.561 10.3467 153.347 10.272C153.145 10.1867 152.915 10.0747 152.659 9.936C152.403 9.79733 152.195 9.648 152.035 9.488C151.875 9.31733 151.742 9.104 151.635 8.848C151.529 8.592 151.475 8.304 151.475 7.984C151.475 7.20533 151.758 6.58133 152.323 6.112C152.899 5.64267 153.619 5.408 154.483 5.408C155.582 5.408 156.617 5.728 157.587 6.368L156.819 7.744C155.945 7.21067 155.15 6.944 154.435 6.944C154.062 6.944 153.769 7.024 153.555 7.184C153.353 7.344 153.251 7.55733 153.251 7.824C153.251 8.00533 153.342 8.17067 153.523 8.32C153.715 8.46933 153.902 8.58133 154.083 8.656C154.275 8.72 154.579 8.82133 154.995 8.96C155.017 8.97067 155.043 8.98133 155.075 8.992C155.107 9.00267 155.134 9.008 155.155 9.008C155.529 9.12533 155.843 9.24267 156.099 9.36C156.355 9.46667 156.622 9.616 156.899 9.808C157.187 10 157.406 10.24 157.555 10.528C157.705 10.8053 157.779 11.1307 157.779 11.504C157.779 12.3573 157.486 13.0133 156.899 13.472C156.313 13.9307 155.561 14.16 154.643 14.16Z" fill="#BCFE1E"/>
</svg>
