<svg width="167" height="36" viewBox="0 0 167 36" fill="none" xmlns="http://www.w3.org/2000/svg">
<g clip-path="url(#clip0_995_283)">
<g clip-path="url(#clip1_995_283)">
<g clip-path="url(#clip2_995_283)">
<path d="M96.45 20.9512H99.9234C100.092 21.6956 100.538 22.2119 101.262 22.5001C101.994 22.7883 103.087 22.9324 104.543 22.9324C106.118 22.9324 107.252 22.8003 107.944 22.5361C108.643 22.272 108.993 21.8397 108.993 21.2394C108.993 20.8952 108.852 20.615 108.571 20.3989C108.289 20.1827 107.911 20.0306 107.437 19.9426C106.963 19.8465 106.416 19.7785 105.797 19.7385C105.186 19.6985 104.539 19.6664 103.855 19.6424C103.18 19.6104 102.5 19.5704 101.817 19.5223C101.141 19.4663 100.494 19.3663 99.8751 19.2222C99.2641 19.0701 98.7213 18.87 98.247 18.6218C97.7726 18.3737 97.3947 18.0215 97.1133 17.5652C96.8319 17.1009 96.6912 16.5486 96.6912 15.9082C96.6912 14.6194 97.3585 13.6589 98.6932 13.0265C100.028 12.3861 101.921 12.0659 104.374 12.0659C106.882 12.0659 108.752 12.3781 109.982 13.0025C111.22 13.6188 111.928 14.5954 112.104 15.9322H108.619C108.474 15.2758 108.048 14.8196 107.341 14.5634C106.641 14.3072 105.644 14.1792 104.35 14.1792C102.967 14.1792 101.925 14.3113 101.226 14.5754C100.526 14.8316 100.177 15.2518 100.177 15.8362C100.177 16.1644 100.317 16.4325 100.599 16.6406C100.88 16.8488 101.254 17.0008 101.72 17.0969C102.195 17.185 102.737 17.253 103.349 17.301C103.968 17.3411 104.615 17.3771 105.29 17.4091C105.974 17.4411 106.653 17.4891 107.329 17.5532C108.012 17.6092 108.659 17.7133 109.27 17.8654C109.889 18.0094 110.432 18.2056 110.898 18.4537C111.373 18.7019 111.751 19.0501 112.032 19.4983C112.314 19.9386 112.454 20.4629 112.454 21.0713C112.454 22.4801 111.803 23.4967 110.5 24.1211C109.198 24.7454 107.212 25.0576 104.543 25.0576C101.889 25.0576 99.9274 24.7535 98.657 24.1451C97.3947 23.5287 96.659 22.4641 96.45 20.9512Z" fill="white"/>
<path d="M90.992 12.438H94.4654V25.0942H90.992V12.438Z" fill="white"/>
<path d="M71.4229 12.4382H74.7999V14.8276C75.8853 13.0186 78.0522 12.114 81.3005 12.114C83.793 12.114 85.6865 12.6343 86.981 13.6749C88.2835 14.7076 88.9348 16.3525 88.9348 18.6099C88.9348 20.8512 88.2835 22.4922 86.981 23.5328C85.6865 24.5654 83.793 25.0817 81.3005 25.0817C78.1245 25.0817 75.9898 24.2532 74.8963 22.5962V25.0943H71.4229V12.4382ZM85.4252 19.1502V18.0455C85.4252 16.7568 84.995 15.8402 84.1347 15.2959C83.2744 14.7516 81.9477 14.4794 80.1547 14.4794C78.3778 14.4794 77.0632 14.7356 76.2109 15.2479C75.3667 15.7602 74.9285 16.6247 74.8963 17.8414V19.1502C74.8963 20.439 75.3225 21.3595 76.1747 21.9118C77.027 22.4642 78.3537 22.7403 80.1547 22.7403C81.9557 22.7403 83.2824 22.4682 84.1347 21.9238C84.995 21.3795 85.4252 20.455 85.4252 19.1502Z" fill="white"/>
<path d="M53.4702 20.9512H56.9436C57.1124 21.6956 57.5587 22.2119 58.2823 22.5001C59.014 22.7883 60.1074 22.9324 61.5627 22.9324C63.1387 22.9324 64.2723 22.8003 64.9638 22.5361C65.6633 22.272 66.0131 21.8397 66.0131 21.2394C66.0131 20.8952 65.8724 20.615 65.591 20.3989C65.3095 20.1827 64.9316 20.0306 64.4573 19.9426C63.9829 19.8465 63.4361 19.7785 62.817 19.7385C62.206 19.6985 61.5587 19.6664 60.8753 19.6424C60.1999 19.6104 59.5205 19.5704 58.8371 19.5223C58.1617 19.4663 57.5144 19.3663 56.8953 19.2222C56.2843 19.0701 55.7415 18.87 55.2672 18.6218C54.7928 18.3737 54.4149 18.0215 54.1335 17.5652C53.8521 17.1009 53.7114 16.5486 53.7114 15.9082C53.7114 14.6194 54.3787 13.6589 55.7134 13.0265C57.0481 12.3861 58.9416 12.0659 61.3939 12.0659C63.9025 12.0659 65.7719 12.3781 67.002 13.0025C68.2402 13.6188 68.9478 14.5954 69.1247 15.9322H65.6392C65.4945 15.2758 65.0683 14.8196 64.3608 14.5634C63.6613 14.3072 62.6643 14.1792 61.3698 14.1792C59.9868 14.1792 58.9456 14.3113 58.2461 14.5754C57.5466 14.8316 57.1968 15.2518 57.1968 15.8362C57.1968 16.1644 57.3376 16.4325 57.619 16.6406C57.9004 16.8488 58.2743 17.0008 58.7406 17.0969C59.215 17.185 59.7577 17.253 60.3688 17.301C60.9879 17.3411 61.6351 17.3771 62.3105 17.4091C62.9939 17.4411 63.6733 17.4891 64.3487 17.5532C65.0322 17.6092 65.6794 17.7133 66.2905 17.8654C66.9096 18.0094 67.4523 18.2056 67.9186 18.4537C68.393 18.7019 68.7709 19.0501 69.0523 19.4983C69.3337 19.9386 69.4744 20.4629 69.4744 21.0713C69.4744 22.4801 68.8232 23.4967 67.5206 24.1211C66.2181 24.7454 64.2321 25.0576 61.5627 25.0576C58.9094 25.0576 56.9476 24.7535 55.6772 24.1451C54.4149 23.5287 53.6792 22.4641 53.4702 20.9512Z" fill="white"/>
<path d="M35.6863 21.3355C35.6863 20.1668 36.1285 19.2663 37.0129 18.6339C37.9054 17.9935 39.3487 17.6493 41.3427 17.6013L48.2051 17.4572V17.085C48.2051 16.1004 47.8593 15.396 47.1679 14.9717C46.4844 14.5475 45.399 14.3353 43.9115 14.3353C42.5849 14.3353 41.5678 14.4834 40.8602 14.7796C40.1607 15.0758 39.7306 15.5641 39.5698 16.2445H36.1325C36.3576 14.8757 37.1054 13.847 38.3758 13.1586C39.6461 12.4622 41.4914 12.114 43.9115 12.114C46.5407 12.114 48.4905 12.5143 49.7609 13.3147C51.0313 14.1152 51.6664 15.3719 51.6664 17.085V24.7815H48.3619V22.4642C47.8634 23.3047 47.0352 23.9531 45.8774 24.4093C44.7276 24.8576 43.3246 25.0817 41.6683 25.0817C40.5828 25.0817 39.6502 24.9977 38.8703 24.8296C38.0903 24.6615 37.4712 24.4133 37.0129 24.0851C36.5546 23.7489 36.2169 23.3567 35.9999 22.9084C35.7908 22.4602 35.6863 21.9359 35.6863 21.3355ZM42.5728 22.8844C43.3929 22.8844 44.1326 22.8244 44.792 22.7043C45.4593 22.5842 46.0503 22.3961 46.5648 22.14C47.0875 21.8838 47.4895 21.5396 47.7709 21.1074C48.0604 20.6671 48.2051 20.1548 48.2051 19.5704V19.2222L42.3316 19.3423C41.2301 19.3663 40.4261 19.5104 39.9195 19.7746C39.421 20.0307 39.1718 20.447 39.1718 21.0233V21.1914C39.1718 21.7838 39.4371 22.216 39.9678 22.4882C40.4984 22.7523 41.3668 22.8844 42.5728 22.8844Z" fill="white"/>
<path fill-rule="evenodd" clip-rule="evenodd" d="M11.2313 23.8651C11.2856 24.0297 9.98953 24.6051 8.33657 25.1503C6.6836 25.6955 5.29956 26.004 5.24528 25.8394C5.19099 25.6747 6.48704 25.0993 8.14001 24.5541C9.79298 24.009 11.177 23.7005 11.2313 23.8651ZM11.1793 24.7317C11.2534 24.8884 10.584 25.3591 9.68429 25.783C8.78457 26.2068 7.99515 26.4233 7.92117 26.2666C7.84711 26.1099 8.51649 25.6392 9.41622 25.2154C10.3159 24.7915 11.1054 24.575 11.1793 24.7317ZM11.0511 23.1109C11.0907 23.2797 9.4946 23.8006 7.48596 24.2745C5.47732 24.7483 3.81688 24.9957 3.77722 24.827C3.73757 24.6582 5.33368 24.1373 7.34232 23.6634C9.35096 23.1895 11.0114 22.9422 11.0511 23.1109ZM11.537 25.3759C11.6561 25.502 11.5027 25.8385 11.1946 26.1274C10.8865 26.4164 10.5402 26.5483 10.4212 26.4222C10.3021 26.2961 10.4554 25.9596 10.7635 25.6706C11.0716 25.3817 11.4179 25.2498 11.537 25.3759ZM11.2096 22.1733C11.2374 22.3443 9.40997 22.7857 7.12805 23.1589C4.84613 23.5322 2.97378 23.6961 2.946 23.525C2.91822 23.3539 4.74562 22.9126 7.02753 22.5393C9.30945 22.166 11.1818 22.0022 11.2096 22.1733ZM11.0492 21.4007C11.0649 21.5733 9.01073 21.9053 6.46111 22.142C3.91147 22.3788 1.83189 22.4307 1.81617 22.258C1.80045 22.0854 3.8546 21.7534 6.40422 21.5167C8.95386 21.28 11.0334 21.228 11.0492 21.4007ZM11.023 20.6203C11.0235 20.7937 8.86804 20.9465 6.20854 20.9615C3.54903 20.9765 1.39266 20.8481 1.39213 20.6747C1.39158 20.5013 3.54705 20.3485 6.20655 20.3335C8.86606 20.3185 11.0224 20.4469 11.023 20.6203ZM11.144 19.9509C11.1263 20.1234 8.96716 20.0508 6.32139 19.7886C3.67559 19.5265 1.54508 19.1741 1.56272 19.0015C1.58037 18.8289 3.73953 18.9016 6.3853 19.1637C9.0311 19.4258 11.1616 19.7783 11.144 19.9509ZM11.2095 19.2883C11.1739 19.4581 9.11359 19.1772 6.60783 18.6609C4.1021 18.1445 2.09963 17.5883 2.13522 17.4184C2.17088 17.2487 4.23115 17.5296 6.7369 18.0459C9.24264 18.5623 11.2451 19.1185 11.2095 19.2883ZM7.09797 17.4934C9.31062 18.1545 11.1451 18.5557 11.1954 18.3896C11.2457 18.2235 9.49288 17.553 7.28022 16.8919C5.06757 16.2308 3.23309 15.8296 3.18278 15.9956C3.13246 16.1618 4.88531 16.8323 7.09797 17.4934ZM7.58809 16.5106C9.58604 17.2628 11.2558 17.741 11.3177 17.5788C11.3795 17.4166 9.80997 16.6752 7.81201 15.923C5.81406 15.1708 4.14429 14.6926 4.08243 14.8548C4.02058 15.017 5.59013 15.7583 7.58809 16.5106ZM8.45936 14.8958C10.2269 15.7437 11.5983 16.5578 11.5225 16.7141C11.4467 16.8704 9.95242 16.3097 8.18494 15.4618C6.4174 14.6138 5.04601 13.7998 5.1218 13.6435C5.19759 13.4872 6.69188 14.0479 8.45936 14.8958ZM9.04245 13.9478C10.6264 14.9234 11.8361 15.834 11.7444 15.9815C11.6527 16.129 10.2943 15.4578 8.71024 14.4822C7.12629 13.5066 5.91659 12.5961 6.0083 12.4485C6.10002 12.301 7.45843 12.9722 9.04245 13.9478ZM9.74929 13.0359C11.1023 14.042 12.1146 14.9704 12.0103 15.1094C11.906 15.2485 10.7247 14.5456 9.37168 13.5395C8.01868 12.5333 7.00637 11.605 7.11065 11.4659C7.21494 11.3268 8.39628 12.0297 9.74929 13.0359ZM10.3248 12.0894C11.4732 13.1106 12.3102 14.0435 12.1942 14.173C12.0782 14.3025 11.0532 13.5796 9.90479 12.5584C8.7564 11.5372 7.91944 10.6043 8.03542 10.4748C8.15139 10.3453 9.17645 11.0682 10.3248 12.0894ZM11.072 11.1932C12.0584 12.2384 12.7553 13.1822 12.6284 13.3011C12.5015 13.4202 11.599 12.6692 10.6125 11.624C9.626 10.5787 8.92914 9.63495 9.05604 9.51602C9.18295 9.39709 10.0855 10.1479 11.072 11.1932ZM11.7153 10.1802C12.5114 11.2243 13.0444 12.1559 12.9058 12.2611C12.7672 12.3662 12.0094 11.6051 11.2134 10.561C10.4173 9.51689 9.88429 8.58533 10.0229 8.48014C10.1615 8.37503 10.9192 9.13614 11.7153 10.1802ZM12.4122 9.27074C13.0651 10.2643 13.4763 11.1469 13.3307 11.2422C13.185 11.3375 12.5378 10.6093 11.8848 9.61571C11.2319 8.62215 10.8206 7.73952 10.9663 7.64421C11.1119 7.54897 11.7592 8.27718 12.4122 9.27074ZM13.246 8.21839C13.7507 9.1561 14.0356 9.9829 13.8822 10.0652C13.7288 10.1475 13.1953 9.45399 12.6906 8.51638C12.1859 7.57867 11.901 6.75187 12.0544 6.66959C12.2078 6.58729 12.7413 7.28078 13.246 8.21839ZM14.2264 7.30202C14.5981 8.16641 14.7699 8.92283 14.6099 8.99154C14.45 9.06017 14.019 8.4151 13.6472 7.55071C13.2754 6.68632 13.1037 5.92989 13.2637 5.86119C13.4236 5.79255 13.8546 6.43763 14.2264 7.30202ZM15.2308 6.30539C15.4731 7.08579 15.5347 7.76028 15.3685 7.8119C15.2022 7.86352 14.8711 7.27275 14.6289 6.49238C14.3866 5.71198 14.3249 5.03749 14.4912 4.98587C14.6574 4.93425 14.9886 5.52502 15.2308 6.30539ZM15.7825 4.2522C15.9532 4.21813 16.1931 4.70254 16.3185 5.33408C16.4438 5.96562 16.407 6.50516 16.2363 6.53924C16.0656 6.57331 15.8257 6.0889 15.7004 5.45736C15.5751 4.82582 15.6118 4.28628 15.7825 4.2522ZM17.0043 4.76018C17.0405 5.25419 17.2105 5.64413 17.384 5.63105C17.5576 5.61797 17.6689 5.20686 17.6326 4.71286C17.5964 4.21886 17.4264 3.82891 17.2529 3.84199C17.0793 3.85507 16.9681 4.26619 17.0043 4.76018ZM18.4807 4.2905C18.4558 4.66128 18.5764 4.97095 18.7501 4.98209C18.9237 4.99323 19.0845 4.70164 19.1094 4.33079C19.1343 3.96002 19.0137 3.65035 18.84 3.63921C18.6664 3.62806 18.5056 3.91966 18.4807 4.2905ZM19.9023 4.22219C19.8841 4.49412 20.0101 4.72361 20.1837 4.73473C20.3573 4.74587 20.5127 4.53439 20.531 4.26246C20.5492 3.99054 20.4232 3.76105 20.2497 3.74993C20.076 3.73879 19.9206 3.95027 19.9023 4.22219ZM21.3125 4.5236C21.3009 4.69668 21.4322 4.84596 21.6058 4.85711C21.7795 4.86825 21.9296 4.73697 21.9412 4.56389C21.9528 4.39082 21.8215 4.24153 21.6478 4.23039C21.4742 4.21925 21.3241 4.35053 21.3125 4.5236ZM22.7296 4.93997C22.7008 5.03485 22.8125 5.15221 22.979 5.20193C23.1456 5.25167 23.3039 5.21507 23.3327 5.12019C23.3615 5.02532 23.2498 4.90795 23.0833 4.85823C22.9167 4.80849 22.7584 4.84509 22.7296 4.93997Z" fill="url(#paint0_linear_995_283)"/>
<path fill-rule="evenodd" clip-rule="evenodd" d="M30.4409 22.0395C30.4354 22.2129 29.5648 22.3281 28.4963 22.297C27.4279 22.2659 26.5662 22.1001 26.5718 21.9267C26.5773 21.7534 27.4479 21.6381 28.5163 21.6692C29.5848 21.7004 30.4464 21.8661 30.4409 22.0395ZM30.1403 20.6148C30.15 20.7879 29.1919 20.9842 28.0005 21.0532C26.8091 21.1222 25.8354 21.0378 25.8257 20.8646C25.8161 20.6915 26.7741 20.4952 27.9655 20.4262C29.157 20.3573 30.1306 20.4416 30.1403 20.6148ZM29.8877 19.3842C29.9095 19.5562 28.8674 19.8314 27.5601 19.9988C26.2529 20.1663 25.1755 20.1625 25.1537 19.9905C25.132 19.8185 26.1741 19.5434 27.4813 19.3759C28.7886 19.2085 29.8659 19.2122 29.8877 19.3842ZM29.4731 18.0338C29.5127 18.2026 28.4069 18.6079 27.0029 18.9391C25.599 19.2703 24.4287 19.4019 24.3891 19.2332C24.3494 19.0644 25.4553 18.6591 26.8592 18.3279C28.2631 17.9967 29.4334 17.8651 29.4731 18.0338ZM29.1525 16.6753C29.2068 16.8399 28.0637 17.3649 26.5993 17.8479C25.1349 18.3308 23.9038 18.5889 23.8495 18.4243C23.7952 18.2596 24.9383 17.7347 26.4027 17.2517C27.8671 16.7687 29.0982 16.5107 29.1525 16.6753ZM28.7556 15.3836C28.8241 15.5429 27.6199 16.2128 26.0658 16.8799C24.5118 17.5469 23.1965 17.9586 23.128 17.7993C23.0595 17.6401 24.2637 16.9702 25.8178 16.3031C27.3718 15.636 28.6871 15.2244 28.7556 15.3836ZM28.4553 13.9427C28.5375 14.0954 27.2718 14.9339 25.6283 15.8156C23.9848 16.6972 22.5859 17.2882 22.5036 17.1355C22.4214 16.9829 23.6872 16.1443 25.3306 15.2627C26.9741 14.3811 28.3731 13.7901 28.4553 13.9427ZM27.8621 12.5824C27.9599 12.7257 26.722 13.7365 25.0973 14.8401C23.4726 15.9439 22.0762 16.7225 21.9784 16.5792C21.8807 16.436 23.1185 15.4251 24.7432 14.3215C26.368 13.2178 27.7643 12.4392 27.8621 12.5824ZM27.3314 11.0822C27.4414 11.2163 26.187 12.4197 24.5297 13.77C22.8724 15.1202 21.4398 16.1061 21.3299 15.9719C21.2199 15.8378 22.4743 14.6344 24.1316 13.2841C25.7889 11.9338 27.2215 10.948 27.3314 11.0822ZM26.7918 9.73746C26.9109 9.86361 25.6407 11.2476 23.9548 12.8285C22.2689 14.4094 20.8057 15.5888 20.6865 15.4626C20.5674 15.3365 21.8376 13.9525 23.5235 12.3716C25.2094 10.7907 26.6727 9.61131 26.7918 9.73746ZM26.0815 8.12479C26.2111 8.24007 24.9322 9.87883 23.2248 11.7849C21.5174 13.6909 20.0282 15.1427 19.8984 15.0274C19.7688 14.9121 21.0477 13.2733 22.7551 11.3673C24.4625 9.46121 25.9518 8.00941 26.0815 8.12479ZM24.9885 6.83985L24.9931 6.84233C25.1342 6.94348 23.9866 8.77123 22.4298 10.9248C20.873 13.0784 19.4967 14.7421 19.3555 14.6409C19.2144 14.5398 20.3621 12.712 21.9188 10.5585C23.4445 8.44802 24.7969 6.80794 24.9832 6.83828L24.9886 6.83977L24.9885 6.83985ZM23.6199 5.86009L23.6248 5.86209C23.7758 5.94796 22.8258 7.88477 21.503 10.1881C20.1802 12.4914 18.9855 14.289 18.8346 14.2032C18.6836 14.1173 19.6336 12.1805 20.9563 9.87719C22.2527 7.6199 23.426 5.84831 23.6145 5.85923L23.62 5.86011L23.6199 5.86009ZM22.0306 5.43821L22.0356 5.43985C22.1935 5.51224 21.4502 7.45076 20.3753 9.7697C19.3005 12.0886 18.3011 13.9097 18.1432 13.8373C17.9852 13.7649 18.7285 11.8264 19.8034 9.50747C20.8568 7.23498 21.8377 5.44045 22.0251 5.43772L22.0306 5.43821ZM20.367 5.78445C20.5297 5.8457 19.9953 7.64293 19.1736 9.7987C18.3518 11.9545 17.5538 13.6524 17.3911 13.5911C17.2285 13.5299 17.7628 11.7327 18.5846 9.5769C19.4063 7.42113 20.2043 5.72318 20.367 5.78445ZM17.4354 9.33051C16.8383 11.3004 16.4893 12.9377 16.6558 12.9874C16.8225 13.0372 17.4415 11.4806 18.0385 9.51066C18.6356 7.54074 18.9846 5.90345 18.8181 5.85373C18.6515 5.80398 18.0325 7.36059 17.4354 9.33051ZM16.2469 9.62872C15.8904 11.3272 15.7396 12.7324 15.9099 12.7676C16.0801 12.8027 16.5072 11.4543 16.8637 9.75582C17.2202 8.05738 17.3711 6.65209 17.2008 6.61697C17.0305 6.58185 16.6034 7.93028 16.2469 9.62872ZM14.0943 10.795C14.2638 10.7551 14.4792 11.0549 14.5756 11.4648C14.6719 11.8746 14.6127 12.2393 14.4432 12.2792C14.2738 12.3192 14.0583 12.0194 13.962 11.6095C13.8657 11.1996 13.9249 10.835 14.0943 10.795ZM15.4854 8.71425C15.6588 8.72835 15.7316 9.54058 15.6481 10.5283C15.5645 11.5161 15.3562 12.3053 15.1828 12.2912C15.0094 12.2771 14.9366 11.4648 15.0201 10.4771C15.1036 9.48942 15.312 8.70013 15.4854 8.71425ZM28.8751 22.9758C27.9371 22.8664 27.16 22.9172 27.1393 23.0895C27.1187 23.2617 27.8623 23.4901 28.8003 23.5996C29.7383 23.709 30.5154 23.6581 30.5361 23.4858C30.5568 23.3136 29.8131 23.0853 28.8751 22.9758ZM29.3017 24.3501C28.5018 24.1707 27.822 24.1624 27.7835 24.3316C27.7448 24.5009 28.362 24.7834 29.1619 24.9629C29.9618 25.1423 30.6416 25.1506 30.6802 24.9813C30.7188 24.8121 30.1016 24.5296 29.3017 24.3501ZM29.663 25.7904C29.0512 25.5841 28.5097 25.5502 28.4536 25.7144C28.3975 25.8787 28.8479 26.1791 29.4598 26.3854C30.0716 26.5916 30.613 26.6256 30.6692 26.4614C30.7253 26.2971 30.2749 25.9967 29.663 25.7904ZM29.614 27.2632C29.1664 27.0485 28.7422 27.0012 28.6663 27.1575C28.5905 27.3139 28.8919 27.6146 29.3395 27.8293C29.787 28.044 30.2113 28.0914 30.2871 27.935C30.363 27.7787 30.0616 27.478 29.614 27.2632ZM29.2806 28.7716C28.9709 28.5656 28.6412 28.5155 28.5443 28.6598C28.4475 28.8041 28.6201 29.0882 28.9299 29.2942C29.2396 29.5002 29.5693 29.5503 29.6662 29.406C29.763 29.2617 29.5904 28.9776 29.2806 28.7716ZM28.6259 30.0329C28.3987 29.8818 28.136 29.8763 28.0392 30.0206C27.9423 30.1649 28.048 30.4045 28.2751 30.5556C28.5023 30.7067 28.765 30.7122 28.8618 30.5679C28.9586 30.4236 28.853 30.184 28.6259 30.0329ZM27.6556 31.1002C27.511 31.004 27.3153 31.043 27.2184 31.1874C27.1216 31.3317 27.1602 31.5267 27.3049 31.6228C27.4494 31.719 27.6452 31.68 27.742 31.5356C27.8388 31.3913 27.8002 31.1963 27.6556 31.1002ZM26.582 32.1162C26.514 32.0441 26.3559 32.0822 26.229 32.2011C26.1021 32.3202 26.0544 32.475 26.1225 32.5471C26.1905 32.6192 26.3486 32.5811 26.4754 32.4622C26.6023 32.3431 26.6501 32.1883 26.582 32.1162Z" fill="url(#paint1_linear_995_283)"/>
<path fill-rule="evenodd" clip-rule="evenodd" d="M16.3283 29.1996C16.2691 31.0588 16.08 32.5618 15.9059 32.5567C15.7318 32.5516 15.6388 31.0403 15.698 29.1811C15.7572 27.3219 15.9463 25.8189 16.1204 25.824C16.2945 25.8291 16.3875 27.3404 16.3283 29.1996ZM15.1788 29.1019C14.9779 30.7769 14.6749 32.1183 14.502 32.0981C14.3291 32.0779 14.3518 30.7037 14.5526 29.0288C14.7534 27.3538 15.0565 26.0124 15.2294 26.0326C15.4023 26.0528 15.3796 27.4269 15.1788 29.1019ZM17.4421 29.1611C17.5854 31.1147 17.5607 32.7091 17.387 32.7222C17.2133 32.7352 16.9564 31.1621 16.8131 29.2085C16.6698 27.255 16.6944 25.6606 16.8681 25.6475C17.0418 25.6344 17.2988 27.2075 17.4421 29.1611ZM18.6517 29.1496C18.9931 31.2542 19.1305 32.9831 18.9586 33.0113C18.7867 33.0394 18.3705 31.3561 18.0291 29.2514C17.6877 27.1469 17.5504 25.4179 17.7223 25.3898C17.8942 25.3616 18.3103 27.045 18.6517 29.1496ZM19.7508 29.079C20.2784 31.3234 20.5687 33.1752 20.3991 33.2152C20.2295 33.2551 19.6644 31.4682 19.1367 29.2239C18.6091 26.9796 18.3188 25.1278 18.4884 25.0878C18.658 25.0478 19.2231 26.8347 19.7508 29.079ZM21.0104 28.9156C21.81 31.3405 22.324 33.3505 22.1586 33.4051C21.9931 33.4596 21.2108 31.5381 20.4112 29.1132C19.6116 26.6883 19.0975 24.6784 19.263 24.6238C19.4284 24.5692 20.2108 26.4907 21.0103 28.9156L21.0104 28.9156ZM22.1341 28.5961C23.2245 31.0142 23.9797 33.0324 23.8209 33.1039C23.662 33.1754 22.6492 31.2731 21.5587 28.855C20.4683 26.437 19.713 24.4188 19.8719 24.3473C20.0308 24.2758 21.0436 26.1781 22.1341 28.5961ZM23.2103 28.1041C24.5487 30.3946 25.5116 32.3225 25.361 32.4102C25.2104 32.4978 24.0034 30.712 22.6651 28.4214C21.3268 26.1309 20.3639 24.203 20.5145 24.1153C20.665 24.0277 21.872 25.8134 23.2103 28.1041ZM24.1112 27.2923C25.5877 29.3765 26.6692 31.1474 26.5269 31.2477C26.3845 31.3481 25.0722 29.7399 23.5957 27.6558C22.1193 25.5716 21.0377 23.8007 21.1801 23.7004C21.3225 23.6 22.6348 25.2082 24.1112 27.2923ZM24.6633 26.2047C26.1251 27.9889 27.2006 29.5245 27.0657 29.6345C26.9306 29.7445 25.6362 28.3873 24.1744 26.6031C22.7126 24.8189 21.6371 23.2834 21.7721 23.1733C21.907 23.0633 23.2015 24.4206 24.6633 26.2047ZM25.4552 25.3347C26.8683 26.8322 27.9108 28.1427 27.7838 28.2618C27.6569 28.381 26.4083 27.2635 24.9953 25.766C23.5822 24.2686 22.5397 22.958 22.6667 22.839C22.7936 22.7198 24.0422 23.8372 25.4552 25.3347ZM25.7931 24.1594C27.091 25.3137 28.0491 26.3546 27.9329 26.4843C27.8168 26.6139 26.6705 25.7833 25.3726 24.6289C24.0747 23.4746 23.1166 22.4338 23.2328 22.3041C23.3489 22.1744 24.4952 23.005 25.7931 24.1594ZM25.6718 22.6768C26.4888 23.2412 27.0705 23.8144 26.971 23.9572C26.8715 24.0999 26.1287 23.7581 25.3117 23.1937C24.4947 22.6293 23.913 22.0561 24.0125 21.9133C24.1119 21.7705 24.8548 22.1123 25.6718 22.6768ZM25.2188 21.1984C24.814 21.0773 24.4449 21.1141 24.3945 21.2804C24.3441 21.4468 24.6315 21.6796 25.0363 21.8006C25.4411 21.9216 25.8102 21.8849 25.8606 21.7185C25.911 21.5522 25.6236 21.3194 25.2188 21.1984ZM14.0599 29.1345C14.3758 27.6287 14.4937 26.3796 14.3233 26.3445C14.1529 26.3093 13.7585 27.5015 13.4426 29.0073C13.1266 30.513 13.0087 31.7622 13.1792 31.7973C13.3496 31.8325 13.7439 30.6403 14.0599 29.1345ZM12.8945 28.9926C13.312 27.6147 13.5154 26.4573 13.3486 26.4075C13.1819 26.3577 12.7084 27.4344 12.2908 28.8123C11.8733 30.1902 11.6699 31.3475 11.8367 31.3973C12.0034 31.4471 12.477 30.3705 12.8945 28.9926ZM11.6705 29.0079C12.1818 27.7951 12.4663 26.7577 12.3058 26.6907C12.1453 26.6238 11.6006 27.5527 11.0892 28.7655C10.5779 29.9783 10.2934 31.0157 10.4539 31.0827C10.6144 31.1496 11.1591 30.2207 11.6705 29.008L11.6705 29.0079ZM10.5138 28.9029C11.0525 27.8392 11.3633 26.9137 11.2079 26.8358C11.0525 26.7578 10.4897 27.5569 9.9509 28.6206C9.41212 29.6843 9.10132 30.6098 9.25679 30.6877C9.41218 30.7657 9.97496 29.9666 10.5138 28.9029ZM9.15599 28.7592C9.72001 27.8517 10.0573 27.0421 9.90931 26.951C9.76136 26.8598 9.18412 27.5216 8.6201 28.4292C8.05609 29.3367 7.71884 30.1463 7.86679 30.2374C8.01474 30.3286 8.59197 29.6668 9.15599 28.7592ZM7.83939 28.4181C8.406 27.6623 8.75225 26.9655 8.61284 26.8618C8.47343 26.7581 7.90113 27.2868 7.33453 28.0426C6.76793 28.7984 6.42167 29.4952 6.56108 29.5989C6.7005 29.7026 7.2728 29.1739 7.83939 28.4181ZM6.42983 28.1019C6.98784 27.5002 7.33669 26.917 7.20893 26.7994C7.08118 26.6817 6.52524 27.0741 5.96723 27.6757C5.40922 28.2774 5.06037 28.8606 5.18813 28.9782C5.3159 29.0959 5.87183 28.7035 6.42983 28.1019ZM4.99563 27.6963C5.4825 27.2705 5.78416 26.8197 5.66947 26.6893C5.55478 26.5589 5.06719 26.7984 4.58031 27.2242C4.09344 27.6499 3.79178 28.1008 3.90647 28.2311C4.02117 28.3615 4.50876 28.122 4.99563 27.6963ZM3.73948 26.92C4.15113 26.6403 4.40546 26.2974 4.30762 26.154C4.20977 26.0106 3.79679 26.1211 3.38516 26.4008C2.97351 26.6805 2.71918 27.0234 2.81702 27.1668C2.91487 27.3102 3.32785 27.1996 3.73948 26.92ZM2.59524 25.8804C2.93014 25.7154 3.13932 25.4555 3.06249 25.3C2.98566 25.1444 2.65187 25.1519 2.31695 25.3169C1.98205 25.4819 1.77287 25.7418 1.8497 25.8973C1.92653 26.0529 2.26034 26.0453 2.59524 25.8804ZM1.82735 24.6862C2.07297 24.5652 2.20974 24.3411 2.13293 24.1854C2.05609 24.0298 1.7947 24.0017 1.54915 24.1227C1.30353 24.2437 1.16676 24.4678 1.24357 24.6235C1.32041 24.7791 1.5818 24.8072 1.82735 24.6862ZM1.38689 23.3161C1.54316 23.2391 1.60761 23.0506 1.53071 22.895C1.45387 22.7394 1.26489 22.6756 1.1086 22.7527C0.952329 22.8296 0.887878 23.0182 0.964785 23.1738C1.04162 23.3294 1.2306 23.3931 1.38689 23.3161ZM1.04277 21.8822C1.13966 21.8594 1.18599 21.7039 1.14629 21.535C1.10659 21.3661 0.995794 21.2477 0.898975 21.2705C0.802081 21.2934 0.755756 21.4488 0.795456 21.6178C0.835156 21.7867 0.945952 21.9051 1.04277 21.8822Z" fill="url(#paint2_linear_995_283)"/>
<path d="M14.6982 14.8851L15.3866 15.097C18.1561 15.9495 20.5432 17.7312 22.1416 20.1389L-nan -nanL22.1416 20.1389L-nan -nanL22.1416 20.1389C19.8908 22.3011 16.969 23.6379 13.855 23.9301L-nan -nanL13.855 23.9301L-nan -nanL13.855 23.9301C13.0609 21.1545 13.2575 18.1907 14.4114 15.5432L14.6982 14.8851Z" fill="white"/>
<path d="M14.6982 14.8851L15.3866 15.097C18.1561 15.9495 20.5432 17.7312 22.1416 20.1389L-nan -nanL22.1416 20.1389L-nan -nanL22.1416 20.1389C19.8908 22.3011 16.969 23.6379 13.855 23.9301L-nan -nanL13.855 23.9301L-nan -nanL13.855 23.9301C13.0609 21.1545 13.2575 18.1907 14.4114 15.5432L14.6982 14.8851Z" fill="url(#paint3_linear_995_283)" style="mix-blend-mode:multiply"/>
</g>
</g>
</g>
<path d="M119.912 19V12.664H121.364V14.092C121.812 13.012 122.56 12.496 123.608 12.544V14.08H123.524C122.868 14.08 122.344 14.296 121.952 14.728C121.56 15.152 121.364 15.772 121.364 16.588V19H119.912ZM127.562 19.144C126.634 19.144 125.858 18.836 125.234 18.22C124.618 17.604 124.31 16.808 124.31 15.832C124.31 14.912 124.602 14.132 125.186 13.492C125.77 12.852 126.51 12.532 127.406 12.532C128.366 12.532 129.11 12.86 129.638 13.516C130.174 14.164 130.442 14.972 130.442 15.94C130.442 16.116 130.434 16.252 130.418 16.348H125.762C125.842 16.852 126.046 17.248 126.374 17.536C126.702 17.816 127.106 17.956 127.586 17.956C128.21 17.956 128.782 17.704 129.302 17.2L130.154 17.956C129.498 18.748 128.634 19.144 127.562 19.144ZM125.75 15.388H129.002C128.954 14.9 128.79 14.5 128.51 14.188C128.23 13.876 127.858 13.72 127.394 13.72C126.954 13.72 126.586 13.876 126.29 14.188C125.994 14.492 125.814 14.892 125.75 15.388ZM133.12 19.048L131.068 12.664H132.556L133.828 17.008L135.232 12.64H136.468L137.884 17.008L139.18 12.664H140.632L138.556 19.048H137.26L135.844 14.716L134.416 19.048H133.12ZM147.013 19H145.573V18.22C145.061 18.828 144.377 19.132 143.521 19.132C142.889 19.132 142.353 18.96 141.913 18.616C141.481 18.264 141.265 17.776 141.265 17.152C141.265 16.472 141.501 15.956 141.973 15.604C142.445 15.252 143.065 15.076 143.833 15.076C144.449 15.076 145.033 15.164 145.585 15.34V15.22C145.585 14.78 145.449 14.444 145.177 14.212C144.913 13.98 144.529 13.864 144.025 13.864C143.449 13.864 142.845 13.996 142.213 14.26L141.817 13.096C142.601 12.744 143.405 12.568 144.229 12.568C145.149 12.568 145.841 12.8 146.305 13.264C146.777 13.728 147.013 14.388 147.013 15.244V19ZM145.609 16.708V16.348C145.177 16.18 144.693 16.096 144.157 16.096C143.701 16.096 143.345 16.184 143.089 16.36C142.833 16.536 142.705 16.784 142.705 17.104C142.705 17.392 142.821 17.62 143.053 17.788C143.285 17.956 143.577 18.04 143.929 18.04C144.417 18.04 144.817 17.916 145.129 17.668C145.449 17.42 145.609 17.1 145.609 16.708ZM148.74 19V12.664H150.192V14.092C150.64 13.012 151.388 12.496 152.436 12.544V14.08H152.352C151.696 14.08 151.172 14.296 150.78 14.728C150.388 15.152 150.192 15.772 150.192 16.588V19H148.74ZM156.137 19.132C155.345 19.132 154.657 18.836 154.073 18.244C153.489 17.644 153.197 16.836 153.197 15.82C153.197 14.812 153.485 14.012 154.061 13.42C154.645 12.828 155.337 12.532 156.137 12.532C157.001 12.532 157.721 12.904 158.297 13.648V10.24H159.749V19H158.297V17.944C157.737 18.736 157.017 19.132 156.137 19.132ZM155.189 17.308C155.549 17.684 155.981 17.872 156.485 17.872C156.989 17.872 157.421 17.68 157.781 17.296C158.141 16.912 158.321 16.42 158.321 15.82C158.321 15.228 158.141 14.744 157.781 14.368C157.421 13.984 156.989 13.792 156.485 13.792C155.973 13.792 155.541 13.98 155.189 14.356C154.837 14.724 154.661 15.22 154.661 15.844C154.661 16.444 154.837 16.932 155.189 17.308ZM163.732 19.12C162.74 19.12 161.844 18.804 161.044 18.172L161.692 17.188C162.38 17.708 163.072 17.968 163.768 17.968C164.08 17.968 164.32 17.908 164.488 17.788C164.664 17.66 164.752 17.484 164.752 17.26C164.752 17.148 164.72 17.052 164.656 16.972C164.6 16.884 164.496 16.804 164.344 16.732C164.192 16.66 164.064 16.608 163.96 16.576C163.856 16.544 163.684 16.492 163.444 16.42L163.336 16.384C163.112 16.32 162.92 16.26 162.76 16.204C162.608 16.14 162.436 16.056 162.244 15.952C162.052 15.848 161.896 15.736 161.776 15.616C161.656 15.488 161.556 15.328 161.476 15.136C161.396 14.944 161.356 14.728 161.356 14.488C161.356 13.904 161.568 13.436 161.992 13.084C162.424 12.732 162.964 12.556 163.612 12.556C164.436 12.556 165.212 12.796 165.94 13.276L165.364 14.308C164.708 13.908 164.112 13.708 163.576 13.708C163.296 13.708 163.076 13.768 162.916 13.888C162.764 14.008 162.688 14.168 162.688 14.368C162.688 14.504 162.756 14.628 162.892 14.74C163.036 14.852 163.176 14.936 163.312 14.992C163.456 15.04 163.684 15.116 163.996 15.22C164.012 15.228 164.032 15.236 164.056 15.244C164.08 15.252 164.1 15.256 164.116 15.256C164.396 15.344 164.632 15.432 164.824 15.52C165.016 15.6 165.216 15.712 165.424 15.856C165.64 16 165.804 16.18 165.916 16.396C166.028 16.604 166.084 16.848 166.084 17.128C166.084 17.768 165.864 18.26 165.424 18.604C164.984 18.948 164.42 19.12 163.732 19.12Z" fill="#BCFE1E"/>
<defs>
<linearGradient id="paint0_linear_995_283" x1="15.6211" y1="0.587593" x2="8.38131" y2="26.4539" gradientUnits="userSpaceOnUse">
<stop stop-color="white"/>
<stop offset="0.63" stop-color="white"/>
<stop offset="1" stop-color="white" stop-opacity="0.1"/>
</linearGradient>
<linearGradient id="paint1_linear_995_283" x1="27.2846" y1="26.9279" x2="16.7807" y2="11.7276" gradientUnits="userSpaceOnUse">
<stop stop-color="white"/>
<stop offset="0.63" stop-color="white"/>
<stop offset="1" stop-color="white" stop-opacity="0.1"/>
</linearGradient>
<linearGradient id="paint2_linear_995_283" x1="1.97548" y1="23.5683" x2="24.3131" y2="20.8919" gradientUnits="userSpaceOnUse">
<stop stop-color="white"/>
<stop offset="0.63" stop-color="white"/>
<stop offset="1" stop-color="white" stop-opacity="0.1"/>
</linearGradient>
<linearGradient id="paint3_linear_995_283" x1="22.2114" y1="24.1027" x2="20.0287" y2="13.9467" gradientUnits="userSpaceOnUse">
<stop stop-color="white"/>
<stop offset="0.969733" stop-color="white"/>
</linearGradient>
<clipPath id="clip0_995_283">
<rect width="113" height="36" fill="white"/>
</clipPath>
<clipPath id="clip1_995_283">
<rect width="113" height="36" fill="white"/>
</clipPath>
<clipPath id="clip2_995_283">
<rect width="113" height="36" fill="white"/>
</clipPath>
</defs>
</svg>
