<svg width="167" height="36" viewBox="0 0 167 36" fill="none" xmlns="http://www.w3.org/2000/svg">
<path d="M96.9363 20.9243H100.39C100.558 21.6678 101.002 22.1834 101.721 22.4712C102.449 22.759 103.536 22.9029 104.983 22.9029C106.55 22.9029 107.677 22.771 108.364 22.5072C109.06 22.2433 109.408 21.8116 109.408 21.2121C109.408 20.8683 109.268 20.5885 108.988 20.3727C108.708 20.1568 108.333 20.0049 107.861 19.917C107.389 19.821 106.846 19.7531 106.23 19.7131C105.622 19.6731 104.979 19.6412 104.299 19.6172C103.628 19.5852 102.952 19.5452 102.273 19.4973C101.601 19.4413 100.958 19.3414 100.342 19.1975C99.7343 19.0456 99.195 18.8457 98.7233 18.5979C98.2517 18.3501 97.8757 17.9983 97.596 17.5426C97.3163 17.0789 97.1763 16.5273 97.1763 15.8878C97.1763 14.6007 97.8397 13.6413 99.167 13.0098C100.494 12.3702 102.377 12.0505 104.815 12.0505C107.309 12.0505 109.168 12.3622 110.391 12.9858C111.622 13.6014 112.326 14.5767 112.502 15.9118H109.036C108.892 15.2562 108.468 14.8005 107.765 14.5447C107.069 14.2889 106.078 14.161 104.791 14.161C103.416 14.161 102.381 14.2929 101.685 14.5567C100.99 14.8125 100.642 15.2322 100.642 15.8158C100.642 16.1436 100.782 16.4114 101.062 16.6193C101.341 16.8271 101.713 16.979 102.177 17.075C102.648 17.1629 103.188 17.2308 103.796 17.2788C104.411 17.3188 105.055 17.3548 105.726 17.3867C106.406 17.4187 107.081 17.4667 107.753 17.5306C108.432 17.5866 109.076 17.6905 109.684 17.8424C110.299 17.9863 110.839 18.1822 111.302 18.43C111.774 18.6778 112.15 19.0256 112.43 19.4733C112.709 19.913 112.849 20.4366 112.849 21.0442C112.849 22.4512 112.202 23.4665 110.907 24.0901C109.612 24.7136 107.637 25.0254 104.983 25.0254C102.345 25.0254 100.394 24.7216 99.131 24.114C97.8757 23.4985 97.1443 22.4352 96.9363 20.9243Z" fill="white"/>
<path d="M91.5096 12.422H94.9633V25.0619H91.5096V12.422Z" fill="white"/>
<path d="M72.0523 12.4221H75.41V14.8084C76.489 13.0017 78.6436 12.0983 81.8733 12.0983C84.3516 12.0983 86.2343 12.6179 87.5213 13.6572C88.8166 14.6885 89.464 16.3314 89.464 18.5858C89.464 20.8242 88.8166 22.4631 87.5213 23.5024C86.2343 24.5336 84.3516 25.0493 81.8733 25.0493C78.7156 25.0493 76.593 24.2219 75.506 22.567V25.0619H72.0523V12.4221ZM85.9746 19.1254V18.0222C85.9746 16.7351 85.547 15.8197 84.6913 15.2761C83.836 14.7325 82.517 14.4607 80.7343 14.4607C78.9673 14.4607 77.6603 14.7165 76.813 15.2281C75.9736 15.7398 75.5376 16.6032 75.506 17.8183V19.1254C75.506 20.4125 75.9296 21.3319 76.777 21.8835C77.6243 22.4351 78.9433 22.7109 80.7343 22.7109C82.525 22.7109 83.844 22.4391 84.6913 21.8955C85.547 21.3519 85.9746 20.4285 85.9746 19.1254Z" fill="white"/>
<path d="M54.202 20.9243H57.6557C57.8237 21.6678 58.2674 22.1834 58.9867 22.4712C59.7144 22.759 60.8014 22.9029 62.2484 22.9029C63.8154 22.9029 64.9427 22.771 65.63 22.5072C66.3257 22.2433 66.6734 21.8116 66.6734 21.2121C66.6734 20.8683 66.5334 20.5885 66.2537 20.3727C65.974 20.1568 65.598 20.0049 65.1264 19.917C64.6547 19.821 64.111 19.7531 63.4957 19.7131C62.888 19.6731 62.2444 19.6412 61.565 19.6172C60.8934 19.5852 60.218 19.5452 59.5384 19.4973C58.8667 19.4413 58.2234 19.3414 57.6077 19.1975C57 19.0456 56.4604 18.8457 55.9887 18.5979C55.517 18.3501 55.1414 17.9983 54.8617 17.5426C54.5817 17.0789 54.442 16.5273 54.442 15.8878C54.442 14.6007 55.1054 13.6413 56.4327 13.0098C57.7597 12.3702 59.6424 12.0505 62.0807 12.0505C64.575 12.0505 66.4337 12.3622 67.6567 12.9858C68.8877 13.6014 69.5914 14.5767 69.7674 15.9118H66.3017C66.1577 15.2562 65.734 14.8005 65.0307 14.5447C64.335 14.2889 63.3437 14.161 62.0567 14.161C60.6817 14.161 59.6464 14.2929 58.9507 14.5567C58.2554 14.8125 57.9074 15.2322 57.9074 15.8158C57.9074 16.1436 58.0474 16.4114 58.3274 16.6193C58.607 16.8271 58.9787 16.979 59.4424 17.075C59.914 17.1629 60.4537 17.2308 61.0614 17.2788C61.677 17.3188 62.3204 17.3548 62.992 17.3867C63.6714 17.4187 64.347 17.4667 65.0187 17.5306C65.698 17.5866 66.3417 17.6905 66.9494 17.8424C67.5647 17.9863 68.1044 18.1822 68.568 18.43C69.0397 18.6778 69.4154 19.0256 69.6954 19.4733C69.975 19.913 70.115 20.4366 70.115 21.0442C70.115 22.4512 69.4674 23.4665 68.1724 24.0901C66.8774 24.7136 64.9027 25.0254 62.2484 25.0254C59.6104 25.0254 57.6597 24.7216 56.3967 24.114C55.1414 23.4985 54.41 22.4352 54.202 20.9243Z" fill="white"/>
<path d="M36.5197 21.3079C36.5197 20.1407 36.9593 19.2413 37.8387 18.6098C38.726 17.9702 40.161 17.6265 42.1437 17.5785L48.967 17.4346V17.0628C48.967 16.0795 48.6233 15.376 47.9357 14.9523C47.2563 14.5286 46.177 14.3168 44.698 14.3168C43.379 14.3168 42.3677 14.4647 41.664 14.7605C40.9687 15.0562 40.541 15.5439 40.381 16.2234H36.9633C37.1873 14.8564 37.9307 13.8291 39.1937 13.1416C40.457 12.4461 42.2917 12.0983 44.698 12.0983C47.3123 12.0983 49.2507 12.498 50.514 13.2975C51.777 14.0969 52.4087 15.352 52.4087 17.0628V24.7495H49.123V22.4351C48.6273 23.2745 47.8037 23.9221 46.6527 24.3778C45.5093 24.8254 44.1143 25.0493 42.4677 25.0493C41.3883 25.0493 40.461 24.9653 39.6853 24.7975C38.91 24.6296 38.2943 24.3817 37.8387 24.054C37.383 23.7182 37.0473 23.3265 36.8313 22.8788C36.6237 22.4311 36.5197 21.9075 36.5197 21.3079ZM43.367 22.8548C44.1823 22.8548 44.918 22.7949 45.5733 22.6749C46.237 22.555 46.8247 22.3672 47.336 22.1113C47.8557 21.8555 48.2557 21.5117 48.5353 21.08C48.823 20.6404 48.967 20.1287 48.967 19.5451V19.1974L43.127 19.3173C42.032 19.3413 41.2323 19.4852 40.7287 19.749C40.233 20.0048 39.9853 20.4205 39.9853 20.9961V21.164C39.9853 21.7556 40.249 22.1873 40.7767 22.4591C41.3043 22.7229 42.1677 22.8548 43.367 22.8548Z" fill="white"/>
<path fill-rule="evenodd" clip-rule="evenodd" d="M12.2172 23.829C12.2715 23.9934 10.9821 24.5659 9.33733 25.1077C7.69259 25.6496 6.31519 25.9556 6.26093 25.7912C6.20666 25.6268 7.49606 25.0542 9.14079 24.5124C10.7856 23.9705 12.163 23.6646 12.2172 23.829ZM12.1668 24.694C12.2407 24.8505 11.575 25.3194 10.6799 25.7413C9.78486 26.1631 8.99929 26.3781 8.92543 26.2215C8.85146 26.065 9.51716 25.5961 10.4122 25.1743C11.3073 24.7524 12.0929 24.5374 12.1668 24.694ZM12.0367 23.0759C12.0764 23.2444 10.4882 23.7621 8.48929 24.2322C6.49036 24.7024 4.83773 24.9469 4.79799 24.7784C4.75826 24.6099 6.34646 24.0922 8.34539 23.6221C10.3444 23.1519 11.997 22.9074 12.0367 23.0759ZM12.5237 25.3375C12.6425 25.4636 12.4903 25.7993 12.184 26.0873C11.8777 26.3753 11.5331 26.5065 11.4144 26.3804C11.2957 26.2543 11.4478 25.9187 11.7541 25.6307C12.0605 25.3427 12.405 25.2115 12.5237 25.3375ZM12.1932 22.1401C12.2211 22.3109 10.4025 22.7488 8.13136 23.1182C5.86023 23.4875 3.99653 23.6484 3.96863 23.4776C3.94073 23.3068 5.75926 22.8688 8.03039 22.4995C10.3015 22.1301 12.1653 21.9693 12.1932 22.1401ZM12.0323 21.3687C12.0482 21.541 10.0038 21.8694 7.46596 22.1021C4.92809 22.3348 2.85793 22.3836 2.84203 22.2112C2.82613 22.0389 4.87056 21.7105 7.40839 21.4778C9.94626 21.2451 12.0164 21.1963 12.0323 21.3687ZM12.0051 20.5896C12.0059 20.7627 9.86033 20.9121 7.21279 20.9233C4.56526 20.9344 2.41838 20.8032 2.4176 20.6301C2.4168 20.457 4.56236 20.3075 7.20993 20.2964C9.85746 20.2852 12.0043 20.4165 12.0051 20.5896ZM12.1246 19.9215C12.1073 20.0938 9.95773 20.0182 7.32346 19.7527C4.68916 19.4872 2.56769 19.1324 2.585 18.9601C2.60232 18.7879 4.75189 18.8635 7.38616 19.129C10.0205 19.3944 12.1419 19.7493 12.1246 19.9215ZM12.1889 19.2603C12.1537 19.4297 10.1022 19.1463 7.60696 18.6273C5.11173 18.1082 3.11745 17.5501 3.15264 17.3806C3.18789 17.2112 5.23933 17.4946 7.73456 18.0136C10.2298 18.5327 12.2241 19.0908 12.1889 19.2603ZM8.09323 17.4626C10.2969 18.1257 12.1237 18.5289 12.1736 18.3631C12.2234 18.1974 10.4775 17.5255 8.27379 16.8624C6.07009 16.1993 4.24329 15.7961 4.19343 15.9619C4.14359 16.1277 5.88953 16.7995 8.09323 17.4626ZM8.57973 16.4822C10.5698 17.236 12.2328 17.7157 12.2941 17.5539C12.3555 17.3921 10.7919 16.6498 8.80179 15.896C6.81169 15.1422 5.14873 14.6625 5.08739 14.8243C5.02606 14.9861 6.58963 15.7284 8.57973 16.4822ZM9.44473 14.8715C11.2056 15.7205 12.572 16.5351 12.4968 16.691C12.4215 16.8469 10.9331 16.2851 9.17236 15.4361C7.41153 14.5871 6.04513 13.7726 6.12036 13.6166C6.19556 13.4607 7.68396 14.0226 9.44473 14.8715ZM10.0238 13.9261C11.6021 14.9022 12.8077 15.8129 12.7166 15.96C12.6255 16.1072 11.2722 15.4352 9.69389 14.459C8.11563 13.4829 6.91006 12.5722 7.00113 12.4251C7.09223 12.2779 8.44549 12.9499 10.0238 13.9261ZM10.7262 13.0167C12.0746 14.0231 13.0837 14.9512 12.9801 15.0899C12.8765 15.2286 11.6994 14.5253 10.351 13.5189C9.00263 12.5126 7.99349 11.5845 8.09713 11.4458C8.20073 11.3071 9.37779 12.0104 10.7262 13.0167ZM11.2978 12.0728C12.4425 13.0938 13.2771 14.0263 13.1618 14.1554C13.0465 14.2845 12.025 13.5614 10.8803 12.5403C9.73559 11.5193 8.90103 10.5868 9.01629 10.4577C9.13156 10.3286 10.1531 11.0517 11.2978 12.0728ZM12.0402 11.1792C13.0238 12.224 13.7189 13.1671 13.5927 13.2857C13.4666 13.4043 12.567 12.6534 11.5835 11.6086C10.5999 10.5638 9.90479 9.62067 10.031 9.50214C10.1571 9.3836 11.0567 10.1344 12.0402 11.1792ZM12.6793 10.169C13.4733 11.2124 14.0052 12.143 13.8674 12.2478C13.7296 12.3526 12.9741 11.5917 12.1801 10.5483C11.3861 9.50494 10.8541 8.57427 10.992 8.46947C11.1298 8.36474 11.8852 9.1256 12.6793 10.169ZM13.3716 9.2621C14.0231 10.2548 14.4338 11.1365 14.2889 11.2314C14.1441 11.3263 13.4986 10.5984 12.8472 9.6057C12.1957 8.61297 11.785 7.7313 11.9299 7.63637C12.0748 7.5415 12.7202 8.26934 13.3716 9.2621ZM14.2002 8.2128C14.704 9.14957 14.9888 9.97534 14.8362 10.0572C14.6837 10.1392 14.1515 9.44617 13.6477 8.50947C13.1439 7.5727 12.8592 6.74694 13.0118 6.66504C13.1643 6.5831 13.6964 7.27614 14.2002 8.2128ZM15.1749 7.29947C15.5462 8.16287 15.7183 8.9182 15.5592 8.98654C15.4 9.05484 14.97 8.41027 14.5987 7.54687C14.2273 6.68347 14.0552 5.92814 14.2144 5.8598C14.3735 5.7915 14.8035 6.43607 15.1749 7.29947ZM16.1733 6.30604C16.4157 7.0854 16.478 7.7588 16.3126 7.81007C16.1472 7.86137 15.8166 7.27117 15.5744 6.49184C15.332 5.71247 15.2697 5.03907 15.4351 4.98777C15.6005 4.9365 15.9311 5.5267 16.1733 6.30604ZM16.7196 4.25727C16.8895 4.2235 17.129 4.7074 17.2547 5.338C17.3804 5.9686 17.3446 6.50714 17.1747 6.5409C17.0048 6.5747 16.7653 6.0908 16.6396 5.46017C16.5139 4.82957 16.5497 4.29104 16.7196 4.25727ZM17.9366 4.7661C17.9734 5.2593 18.1432 5.64877 18.3159 5.63597C18.4887 5.62317 18.5989 5.21294 18.5621 4.71977C18.5253 4.22657 18.3555 3.8371 18.1828 3.8499C18.01 3.8627 17.8999 4.27294 17.9366 4.7661ZM19.4057 4.29937C19.3815 4.66947 19.502 4.97877 19.6749 4.99014C19.8478 5.0015 20.0074 4.71067 20.0317 4.3405C20.0559 3.9704 19.9354 3.66114 19.7625 3.64974C19.5897 3.63837 19.43 3.92924 19.4057 4.29937ZM20.8209 4.23324C20.8031 4.50464 20.9289 4.7339 21.1017 4.74527C21.2746 4.75664 21.429 4.54574 21.4468 4.27434C21.4645 4.0029 21.3388 3.77364 21.166 3.7623C20.9931 3.75094 20.8387 3.9618 20.8209 4.23324ZM22.2251 4.53614C22.2138 4.7089 22.3448 4.8581 22.5177 4.86947C22.6905 4.88084 22.8398 4.75 22.8511 4.57727C22.8624 4.4045 22.7314 4.2553 22.5586 4.24394C22.3857 4.23254 22.2365 4.36337 22.2251 4.53614ZM23.6365 4.9538C23.608 5.04847 23.7194 5.1658 23.8852 5.21567C24.0511 5.26554 24.2086 5.22924 24.2372 5.13457C24.2657 5.0399 24.1543 4.9226 23.9885 4.8727C23.8225 4.82284 23.665 4.85914 23.6365 4.9538Z" fill="url(#paint0_linear_711_886)"/>
<path fill-rule="evenodd" clip-rule="evenodd" d="M31.3176 22.0204C31.3124 22.1935 30.446 22.3073 29.3826 22.2746C28.3191 22.242 27.4612 22.0753 27.4665 21.9023C27.4717 21.7293 28.3381 21.6155 29.4016 21.6481C30.4651 21.6807 31.3229 21.8474 31.3176 22.0204ZM31.0164 20.598C31.0263 20.7709 30.073 20.9653 28.8872 21.0325C27.7015 21.0997 26.7323 21.014 26.7224 20.8411C26.7125 20.6683 27.6658 20.4738 28.8515 20.4066C30.0373 20.3396 31.0065 20.4252 31.0164 20.598ZM30.7632 19.3694C30.7851 19.5411 29.7483 19.8143 28.4474 19.9795C27.1465 20.1447 26.0742 20.1394 26.0523 19.9677C26.0304 19.7961 27.0672 19.5229 28.3681 19.3577C29.6689 19.1924 30.7412 19.1978 30.7632 19.3694ZM30.3485 18.0211C30.3882 18.1896 29.2882 18.5924 27.8913 18.921C26.4944 19.2495 25.3298 19.3792 25.2901 19.2107C25.2504 19.0422 26.3505 18.6393 27.7474 18.3108C29.1442 17.9823 30.3088 17.8526 30.3485 18.0211ZM30.0275 16.6646C30.0817 16.829 28.9448 17.3513 27.488 17.8313C26.0311 18.3112 24.8062 18.567 24.7519 18.4026C24.6976 18.2382 25.8346 17.7159 27.2914 17.236C28.7482 16.756 29.9732 16.5002 30.0275 16.6646ZM29.6306 15.3749C29.699 15.5339 28.5014 16.2008 26.9555 16.8644C25.4098 17.5279 24.1012 17.9369 24.0328 17.7778C23.9644 17.6188 25.162 16.9519 26.7079 16.2883C28.2536 15.6248 29.5622 15.2158 29.6306 15.3749ZM29.3296 13.9363C29.4116 14.0888 28.153 14.9239 26.5185 15.8015C24.884 16.679 23.4925 17.2669 23.4104 17.1144C23.3284 16.9619 24.587 16.1268 26.2215 15.2492C27.856 14.3717 29.2475 13.7838 29.3296 13.9363ZM28.7372 12.5777C28.8347 12.7209 27.6041 13.7279 25.9886 14.8271C24.3731 15.9264 22.9844 16.7015 22.8869 16.5584C22.7894 16.4152 24.02 15.4082 25.6355 14.309C27.251 13.2097 28.6397 12.4346 28.7372 12.5777ZM28.2068 11.0796C28.3164 11.2136 27.0697 12.4129 25.4221 13.7582C23.7745 15.1035 22.3501 16.0854 22.2405 15.9513C22.1308 15.8173 23.3776 14.618 25.0252 13.2727C26.6727 11.9274 28.0972 10.9455 28.2068 11.0796ZM27.6677 9.73666C27.7865 9.86276 26.5242 11.2422 24.8485 12.8177C23.1728 14.3931 21.7182 15.5681 21.5994 15.4421C21.4807 15.316 22.7429 13.9365 24.4186 12.361C26.0943 10.7856 27.549 9.6106 27.6677 9.73666ZM26.9584 8.12606C27.0876 8.2413 25.817 9.87506 24.1204 11.775C22.4238 13.675 20.9436 15.1218 20.8144 15.0065C20.6852 14.8912 21.9557 13.2575 23.6524 11.3575C25.349 9.45756 26.8291 8.0107 26.9584 8.12606ZM25.8687 6.842L25.8733 6.84446C26.0139 6.94563 24.8743 8.76823 23.3279 10.9154C21.7816 13.0626 20.4141 14.7212 20.2735 14.62C20.1329 14.5188 21.2725 12.6963 22.8188 10.5491C24.3342 8.44486 25.6779 6.80986 25.8634 6.84043L25.8687 6.842ZM24.505 5.86213L24.5099 5.86413C24.6603 5.95006 23.7176 7.8818 22.4044 10.1788C21.0912 12.4758 19.9046 14.2683 19.7543 14.1824C19.6039 14.0964 20.5466 12.1647 21.8598 9.8677C23.1468 7.6166 24.312 5.8501 24.4997 5.86126L24.505 5.86213ZM22.9226 5.43876L22.9275 5.4404C23.0848 5.5129 22.3479 7.44663 21.2814 9.75956C20.2149 12.0724 19.2229 13.8887 19.0656 13.8162C18.9083 13.7437 19.6453 11.81 20.7117 9.49703C21.7569 7.2304 22.7306 5.44073 22.9171 5.43826L22.9226 5.43876ZM21.2673 5.78193C21.4293 5.8433 20.9001 7.63633 20.0853 9.78676C19.2705 11.9372 18.4787 13.6308 18.3167 13.5694C18.1547 13.508 18.684 11.715 19.4987 9.56453C20.3135 7.4141 21.1053 5.72053 21.2673 5.78193ZM18.3545 9.31696C17.7631 11.2823 17.4182 12.9159 17.584 12.9658C17.7499 13.0157 18.3637 11.4629 18.9552 9.49766C19.5466 7.53236 19.8915 5.8987 19.7257 5.84883C19.5598 5.79896 18.946 7.35166 18.3545 9.31696ZM17.1721 9.6129C16.8197 11.3076 16.6716 12.7099 16.8412 12.7452C17.0107 12.7805 17.4338 11.4353 17.7862 9.74063C18.1386 8.04596 18.2867 6.6436 18.1171 6.6083C17.9476 6.573 17.5245 7.91823 17.1721 9.6129ZM15.0313 10.7739C15.1999 10.7342 15.4148 11.0338 15.5113 11.443C15.6077 11.8522 15.5493 12.2161 15.3807 12.2557C15.2121 12.2954 14.9973 11.9958 14.9008 11.5866C14.8043 11.1774 14.8627 10.8135 15.0313 10.7739ZM16.4128 8.69906C16.5854 8.7134 16.6591 9.52416 16.5774 10.5099C16.4957 11.4956 16.2895 12.283 16.1168 12.2687C15.9442 12.2544 15.8706 11.4436 15.9523 10.4579C16.034 9.4722 16.2402 8.68473 16.4128 8.69906ZM29.7606 22.9527C28.8268 22.8421 28.0534 22.8918 28.0331 23.0636C28.0128 23.2355 28.7533 23.4645 29.687 23.5751C30.6208 23.6857 31.3942 23.636 31.4145 23.4641C31.4348 23.2923 30.6943 23.0633 29.7606 22.9527ZM30.1872 24.325C29.3908 24.1448 28.7141 24.1355 28.676 24.3044C28.6378 24.4732 29.2525 24.7561 30.0489 24.9364C30.8454 25.1166 31.5219 25.1258 31.5601 24.957C31.5983 24.7882 30.9836 24.5053 30.1872 24.325ZM30.5489 25.763C29.9397 25.5563 29.4007 25.5216 29.345 25.6854C29.2894 25.8494 29.7382 26.1498 30.3475 26.3566C30.9567 26.5633 31.4957 26.598 31.5513 26.4342C31.6069 26.2703 31.1582 25.9698 30.5489 25.763ZM30.5022 27.233C30.0565 27.0181 29.6341 26.9702 29.5589 27.1261C29.4836 27.282 29.784 27.5826 30.2299 27.7976C30.6756 28.0125 31.098 28.0604 31.1732 27.9045C31.2484 27.7485 30.948 27.448 30.5022 27.233ZM30.1726 28.738C29.864 28.5319 29.5358 28.4814 29.4396 28.6253C29.3435 28.7692 29.5157 29.053 29.8243 29.2591C30.1329 29.4652 30.4611 29.5156 30.5573 29.3717C30.6535 29.2279 30.4813 28.9441 30.1726 28.738ZM29.5228 29.9959C29.2965 29.8448 29.035 29.8389 28.9388 29.9828C28.8426 30.1267 28.9481 30.3659 29.1744 30.5171C29.4008 30.6682 29.6623 30.6741 29.7584 30.5302C29.8546 30.3863 29.7491 30.1471 29.5228 29.9959ZM28.5586 31.0597C28.4146 30.9636 28.2198 31.0022 28.1236 31.1462C28.0275 31.2901 28.0662 31.4847 28.2103 31.5809C28.3543 31.6771 28.5491 31.6384 28.6452 31.4945C28.7414 31.3506 28.7027 31.1559 28.5586 31.0597ZM27.4915 32.0723C27.4237 32.0002 27.2664 32.038 27.1403 32.1565C27.0142 32.2752 26.9669 32.4296 27.0348 32.5017C27.1026 32.5737 27.2599 32.536 27.386 32.4174C27.5121 32.2988 27.5594 32.1443 27.4915 32.0723Z" fill="url(#paint1_linear_711_886)"/>
<path fill-rule="evenodd" clip-rule="evenodd" d="M17.2786 29.1587C17.2224 31.0125 17.0364 32.5109 16.8633 32.5056C16.6902 32.5003 16.5955 30.9932 16.6517 29.1395C16.708 27.2857 16.8939 25.7873 17.067 25.7926C17.2402 25.7979 17.3349 27.305 17.2786 29.1587ZM16.1352 29.0597C15.9378 30.7296 15.6384 32.0667 15.4664 32.0463C15.2944 32.026 15.315 30.6558 15.5123 28.9859C15.7097 27.3161 16.0092 25.9789 16.1812 25.9993C16.3532 26.0197 16.3326 27.3899 16.1352 29.0597ZM18.3862 29.1219C18.5315 31.0701 18.5093 32.6598 18.3365 32.6727C18.1638 32.6855 17.906 31.1165 17.7607 29.1684C17.6155 27.2202 17.6377 25.6304 17.8104 25.6176C17.9832 25.6048 18.241 27.1738 18.3862 29.1219ZM19.5893 29.1122C19.9318 31.2112 20.0709 32.9353 19.8999 32.9631C19.729 32.991 19.3127 31.3119 18.9702 29.2128C18.6277 27.1138 18.4886 25.3897 18.6596 25.3618C18.8305 25.334 19.2467 27.0132 19.5893 29.1122ZM20.6822 29.0434C21.2102 31.282 21.5015 33.1288 21.3329 33.1685C21.1643 33.2081 20.5997 31.4256 20.0718 29.1869C19.5438 26.9483 19.2525 25.1015 19.4211 25.0618C19.5897 25.0222 20.1543 26.8047 20.6822 29.0434ZM21.9347 28.8822C22.7334 31.3012 23.2475 33.3061 23.083 33.3603C22.9186 33.4143 22.1378 31.4974 21.3391 29.0784C20.5404 26.6593 20.0263 24.6544 20.1908 24.6003C20.3553 24.5461 21.1361 26.4632 21.9347 28.8822ZM23.0518 28.5652C24.1398 30.9778 24.8937 32.9913 24.7358 33.0623C24.5779 33.1334 23.5679 31.2352 22.48 28.8225C21.3921 26.4099 20.6381 24.3965 20.796 24.3254C20.9539 24.2543 21.9639 26.1526 23.0518 28.5652ZM24.1215 28.0761C25.4558 30.3619 26.4162 32.2856 26.2666 32.3728C26.117 32.46 24.914 30.6777 23.5798 28.3917C22.2455 26.1059 21.2851 24.1822 21.4347 24.095C21.5843 24.0078 22.7873 25.7901 24.1215 28.0761ZM25.0164 27.2679C26.4878 29.3482 27.5659 31.1155 27.4244 31.2153C27.283 31.3152 25.9756 29.7098 24.5042 27.6296C23.0328 25.5493 21.9547 23.7821 22.0962 23.6822C22.2376 23.5823 23.545 25.1877 25.0164 27.2679ZM25.5639 26.1843C27.0203 27.9654 28.0921 29.498 27.958 29.6076C27.8239 29.7171 26.5346 28.3619 25.0783 26.5808C23.6219 24.7997 22.5501 23.267 22.6841 23.1575C22.8182 23.048 24.1075 24.4031 25.5639 26.1843ZM26.3502 25.3179C27.7577 26.813 28.7964 28.1212 28.6703 28.2398C28.5442 28.3584 27.3009 27.2425 25.8935 25.7473C24.486 24.2522 23.4473 22.9439 23.5734 22.8254C23.6995 22.7067 24.9428 23.8227 26.3502 25.3179ZM26.6846 24.1464C27.9771 25.2992 28.9314 26.3384 28.816 26.4676C28.7008 26.5967 27.5595 25.7669 26.2671 24.614C24.9746 23.4611 24.0203 22.422 24.1357 22.2928C24.2509 22.1637 25.3922 22.9935 26.6846 24.1464ZM26.5619 22.6679C27.3752 23.2318 27.9545 23.8042 27.8558 23.9464C27.7571 24.0886 27.0178 23.7468 26.2045 23.1828C25.3911 22.6189 24.8118 22.0465 24.9105 21.9043C25.0092 21.762 25.7485 22.1039 26.5619 22.6679ZM26.1093 21.1931C25.7065 21.0718 25.3394 21.1079 25.2896 21.2737C25.2397 21.4395 25.5258 21.6721 25.9286 21.7933C26.3314 21.9145 26.6984 21.8784 26.7483 21.7126C26.7981 21.5469 26.5121 21.3143 26.1093 21.1931ZM15.0225 29.0907C15.3346 27.5897 15.45 26.3443 15.2805 26.309C15.1109 26.2737 14.7204 27.4619 14.4083 28.9629C14.0962 30.4639 13.9808 31.7093 14.1503 31.7446C14.3199 31.7799 14.7104 30.5917 15.0225 29.0907ZM13.8633 28.9475C14.2765 27.5742 14.4771 26.4204 14.3112 26.3705C14.1453 26.3206 13.6759 27.3935 13.2626 28.7668C12.8493 30.1402 12.6487 31.2939 12.8146 31.3438C12.9805 31.3937 13.4499 30.3209 13.8633 28.9475ZM12.6459 28.961C13.1528 27.7525 13.4342 26.7184 13.2745 26.6514C13.1147 26.5845 12.5744 27.5099 12.0675 28.7185C11.5606 29.9271 11.2792 30.9612 11.4389 31.0281C11.5987 31.0951 12.139 30.1696 12.6459 28.961ZM11.4954 28.8547C12.0297 27.7948 12.3375 26.8724 12.1827 26.7945C12.0281 26.7166 11.4695 27.5126 10.9352 28.5725C10.4008 29.6323 10.093 30.5547 10.2478 30.6326C10.4024 30.7106 10.961 29.9146 11.4954 28.8547ZM10.1448 28.7095C10.7044 27.8054 11.0387 26.9986 10.8914 26.9075C10.7442 26.8165 10.171 27.4755 9.61136 28.3797C9.05169 29.2838 8.71743 30.0906 8.86469 30.1817C9.01199 30.2728 9.58513 29.6137 10.1448 28.7095ZM8.83489 28.3676C9.39733 27.6147 9.74069 26.9204 9.60189 26.8168C9.46309 26.7132 8.89466 27.2396 8.33223 27.9924C7.76979 28.7453 7.42643 29.4396 7.56523 29.5432C7.70403 29.6468 8.27246 29.1204 8.83489 28.3676ZM7.43256 28.0502C7.98666 27.4511 8.33279 26.8701 8.20556 26.7526C8.07836 26.635 7.52599 27.0255 6.97189 27.6247C6.41776 28.2239 6.07166 28.8049 6.19889 28.9223C6.32613 29.0398 6.87846 28.6494 7.43256 28.0502ZM6.00559 27.6438C6.48923 27.22 6.78859 26.7708 6.67433 26.6407C6.56009 26.5105 6.07549 26.7486 5.59189 27.1724C5.10829 27.5963 4.80889 28.0454 4.92316 28.1756C5.03739 28.3057 5.52199 28.0676 6.00559 27.6438ZM4.75519 26.868C5.16423 26.5897 5.41666 26.2481 5.31916 26.105C5.22166 25.9619 4.81106 26.0715 4.40209 26.3497C3.99306 26.6281 3.74063 26.9696 3.83813 27.1128C3.93566 27.2559 4.34623 27.1462 4.75519 26.868ZM3.61573 25.8297C3.94856 25.6657 4.15626 25.4069 4.07963 25.2517C4.00299 25.0964 3.67103 25.1035 3.33816 25.2675C3.00532 25.4315 2.79765 25.6904 2.87429 25.8456C2.95092 26.0009 3.2829 25.9937 3.61573 25.8297ZM2.85034 24.6379C3.09445 24.5177 3.23015 24.2943 3.15354 24.139C3.07691 23.9838 2.8169 23.9554 2.57286 24.0757C2.32875 24.1959 2.19305 24.4193 2.26966 24.5746C2.34629 24.7298 2.6063 24.7582 2.85034 24.6379ZM2.41034 23.2712C2.56565 23.1946 2.62948 23.0067 2.55277 22.8515C2.47614 22.6962 2.28809 22.6324 2.13277 22.709C1.97746 22.7855 1.91363 22.9734 1.99033 23.1287C2.06697 23.2839 2.25501 23.3478 2.41034 23.2712ZM2.06606 21.8409C2.1624 21.8183 2.20825 21.6633 2.16853 21.4948C2.1288 21.3263 2.01844 21.2081 1.92218 21.2308C1.82585 21.2534 1.78 21.4084 1.81972 21.5769C1.85945 21.7454 1.9698 21.8636 2.06606 21.8409Z" fill="url(#paint2_linear_711_886)"/>
<path d="M119.912 19V12.664H121.364V14.092C121.812 13.012 122.56 12.496 123.608 12.544V14.08H123.524C122.868 14.08 122.344 14.296 121.952 14.728C121.56 15.152 121.364 15.772 121.364 16.588V19H119.912ZM127.562 19.144C126.634 19.144 125.858 18.836 125.234 18.22C124.618 17.604 124.31 16.808 124.31 15.832C124.31 14.912 124.602 14.132 125.186 13.492C125.77 12.852 126.51 12.532 127.406 12.532C128.366 12.532 129.11 12.86 129.638 13.516C130.174 14.164 130.442 14.972 130.442 15.94C130.442 16.116 130.434 16.252 130.418 16.348H125.762C125.842 16.852 126.046 17.248 126.374 17.536C126.702 17.816 127.106 17.956 127.586 17.956C128.21 17.956 128.782 17.704 129.302 17.2L130.154 17.956C129.498 18.748 128.634 19.144 127.562 19.144ZM125.75 15.388H129.002C128.954 14.9 128.79 14.5 128.51 14.188C128.23 13.876 127.858 13.72 127.394 13.72C126.954 13.72 126.586 13.876 126.29 14.188C125.994 14.492 125.814 14.892 125.75 15.388ZM133.12 19.048L131.068 12.664H132.556L133.828 17.008L135.232 12.64H136.468L137.884 17.008L139.18 12.664H140.632L138.556 19.048H137.26L135.844 14.716L134.416 19.048H133.12ZM147.013 19H145.573V18.22C145.061 18.828 144.377 19.132 143.521 19.132C142.889 19.132 142.353 18.96 141.913 18.616C141.481 18.264 141.265 17.776 141.265 17.152C141.265 16.472 141.501 15.956 141.973 15.604C142.445 15.252 143.065 15.076 143.833 15.076C144.449 15.076 145.033 15.164 145.585 15.34V15.22C145.585 14.78 145.449 14.444 145.177 14.212C144.913 13.98 144.529 13.864 144.025 13.864C143.449 13.864 142.845 13.996 142.213 14.26L141.817 13.096C142.601 12.744 143.405 12.568 144.229 12.568C145.149 12.568 145.841 12.8 146.305 13.264C146.777 13.728 147.013 14.388 147.013 15.244V19ZM145.609 16.708V16.348C145.177 16.18 144.693 16.096 144.157 16.096C143.701 16.096 143.345 16.184 143.089 16.36C142.833 16.536 142.705 16.784 142.705 17.104C142.705 17.392 142.821 17.62 143.053 17.788C143.285 17.956 143.577 18.04 143.929 18.04C144.417 18.04 144.817 17.916 145.129 17.668C145.449 17.42 145.609 17.1 145.609 16.708ZM148.74 19V12.664H150.192V14.092C150.64 13.012 151.388 12.496 152.436 12.544V14.08H152.352C151.696 14.08 151.172 14.296 150.78 14.728C150.388 15.152 150.192 15.772 150.192 16.588V19H148.74ZM156.137 19.132C155.345 19.132 154.657 18.836 154.073 18.244C153.489 17.644 153.197 16.836 153.197 15.82C153.197 14.812 153.485 14.012 154.061 13.42C154.645 12.828 155.337 12.532 156.137 12.532C157.001 12.532 157.721 12.904 158.297 13.648V10.24H159.749V19H158.297V17.944C157.737 18.736 157.017 19.132 156.137 19.132ZM155.189 17.308C155.549 17.684 155.981 17.872 156.485 17.872C156.989 17.872 157.421 17.68 157.781 17.296C158.141 16.912 158.321 16.42 158.321 15.82C158.321 15.228 158.141 14.744 157.781 14.368C157.421 13.984 156.989 13.792 156.485 13.792C155.973 13.792 155.541 13.98 155.189 14.356C154.837 14.724 154.661 15.22 154.661 15.844C154.661 16.444 154.837 16.932 155.189 17.308ZM163.732 19.12C162.74 19.12 161.844 18.804 161.044 18.172L161.692 17.188C162.38 17.708 163.072 17.968 163.768 17.968C164.08 17.968 164.32 17.908 164.488 17.788C164.664 17.66 164.752 17.484 164.752 17.26C164.752 17.148 164.72 17.052 164.656 16.972C164.6 16.884 164.496 16.804 164.344 16.732C164.192 16.66 164.064 16.608 163.96 16.576C163.856 16.544 163.684 16.492 163.444 16.42L163.336 16.384C163.112 16.32 162.92 16.26 162.76 16.204C162.608 16.14 162.436 16.056 162.244 15.952C162.052 15.848 161.896 15.736 161.776 15.616C161.656 15.488 161.556 15.328 161.476 15.136C161.396 14.944 161.356 14.728 161.356 14.488C161.356 13.904 161.568 13.436 161.992 13.084C162.424 12.732 162.964 12.556 163.612 12.556C164.436 12.556 165.212 12.796 165.94 13.276L165.364 14.308C164.708 13.908 164.112 13.708 163.576 13.708C163.296 13.708 163.076 13.768 162.916 13.888C162.764 14.008 162.688 14.168 162.688 14.368C162.688 14.504 162.756 14.628 162.892 14.74C163.036 14.852 163.176 14.936 163.312 14.992C163.456 15.04 163.684 15.116 163.996 15.22C164.012 15.228 164.032 15.236 164.056 15.244C164.08 15.252 164.1 15.256 164.116 15.256C164.396 15.344 164.632 15.432 164.824 15.52C165.016 15.6 165.216 15.712 165.424 15.856C165.64 16 165.804 16.18 165.916 16.396C166.028 16.604 166.084 16.848 166.084 17.128C166.084 17.768 165.864 18.26 165.424 18.604C164.984 18.948 164.42 19.12 163.732 19.12Z" fill="#BCFE1E"/>
<defs>
<linearGradient id="paint0_linear_711_886" x1="16.5536" y1="0.598896" x2="9.28343" y2="26.3809" gradientUnits="userSpaceOnUse">
<stop stop-color="#BCFE1E"/>
<stop offset="0.63" stop-color="#BCFE1E"/>
<stop offset="1" stop-color="#BCFE1E" stop-opacity="0.1"/>
</linearGradient>
<linearGradient id="paint1_linear_711_886" x1="28.1832" y1="26.8949" x2="17.6826" y2="11.725" gradientUnits="userSpaceOnUse">
<stop stop-color="#BCFE1E"/>
<stop offset="0.63" stop-color="#BCFE1E"/>
<stop offset="1" stop-color="#BCFE1E" stop-opacity="0.1"/>
</linearGradient>
<linearGradient id="paint2_linear_711_886" x1="2.99608" y1="23.5234" x2="25.2023" y2="20.8385" gradientUnits="userSpaceOnUse">
<stop stop-color="#BCFE1E"/>
<stop offset="0.63" stop-color="#BCFE1E"/>
<stop offset="1" stop-color="#BCFE1E" stop-opacity="0.1"/>
</linearGradient>
</defs>
</svg>
